<mxfile host="app.diagrams.net" modified="2023-08-11T05:15:15.702Z" agent="Mozilla/5.0 (X11; Ubuntu; Linux x86_64; rv:109.0) Gecko/20100101 Firefox/115.0" etag="nzv4Kz5SMK2698FnohOL" version="21.3.8">
  <diagram name="Page-1" id="_tIDG54dBTDYyGci-jfx">
    <mxGraphModel dx="1434" dy="749" grid="1" gridSize="10" guides="1" tooltips="1" connect="1" arrows="1" fold="1" page="1" pageScale="1" pageWidth="850" pageHeight="1100" math="0" shadow="0">
      <root>
        <mxCell id="0" />
        <mxCell id="1" parent="0" />
        <mxCell id="vT_4UTrxaRrFR3VL8aXK-1" value="Village" style="swimlane;fontStyle=1;align=center;verticalAlign=top;childLayout=stackLayout;horizontal=1;startSize=26;horizontalStack=0;resizeParent=1;resizeParentMax=0;resizeLast=0;collapsible=1;marginBottom=0;whiteSpace=wrap;html=1;" parent="1" vertex="1">
          <mxGeometry x="180" y="350" width="260" height="140" as="geometry" />
        </mxCell>
        <mxCell id="vT_4UTrxaRrFR3VL8aXK-2" value="&lt;pre&gt;&lt;code class=&quot;!whitespace-pre hljs language-sql&quot;&gt;+ id INTEGER &lt;span class=&quot;hljs-keyword&quot;&gt;PRIMARY&lt;/span&gt; KEY AUTOINCR&lt;br&gt;+ name TEXT &lt;span class=&quot;hljs-keyword&quot;&gt;NOT&lt;/span&gt; &lt;span class=&quot;hljs-keyword&quot;&gt;NULL&lt;/span&gt;,&lt;br&gt;+ owned INT //does player own it&lt;br&gt;&lt;/code&gt;&lt;/pre&gt;" style="text;strokeColor=none;fillColor=none;align=left;verticalAlign=top;spacingLeft=4;spacingRight=4;overflow=hidden;rotatable=0;points=[[0,0.5],[1,0.5]];portConstraint=eastwest;whiteSpace=wrap;html=1;" parent="vT_4UTrxaRrFR3VL8aXK-1" vertex="1">
          <mxGeometry y="26" width="260" height="74" as="geometry" />
        </mxCell>
        <mxCell id="vT_4UTrxaRrFR3VL8aXK-3" value="" style="line;strokeWidth=1;fillColor=none;align=left;verticalAlign=middle;spacingTop=-1;spacingLeft=3;spacingRight=3;rotatable=0;labelPosition=right;points=[];portConstraint=eastwest;strokeColor=inherit;" parent="vT_4UTrxaRrFR3VL8aXK-1" vertex="1">
          <mxGeometry y="100" width="260" height="8" as="geometry" />
        </mxCell>
        <mxCell id="vT_4UTrxaRrFR3VL8aXK-4" value="+ method(type): type" style="text;strokeColor=none;fillColor=none;align=left;verticalAlign=top;spacingLeft=4;spacingRight=4;overflow=hidden;rotatable=0;points=[[0,0.5],[1,0.5]];portConstraint=eastwest;whiteSpace=wrap;html=1;" parent="vT_4UTrxaRrFR3VL8aXK-1" vertex="1">
          <mxGeometry y="108" width="260" height="32" as="geometry" />
        </mxCell>
        <mxCell id="vT_4UTrxaRrFR3VL8aXK-5" value="Unit" style="swimlane;fontStyle=1;align=center;verticalAlign=top;childLayout=stackLayout;horizontal=1;startSize=26;horizontalStack=0;resizeParent=1;resizeParentMax=0;resizeLast=0;collapsible=1;marginBottom=0;whiteSpace=wrap;html=1;" parent="1" vertex="1">
          <mxGeometry x="580" y="160" width="160" height="202" as="geometry" />
        </mxCell>
        <mxCell id="vT_4UTrxaRrFR3VL8aXK-6" value="&lt;div&gt;+ id&lt;br&gt;&lt;code class=&quot;!whitespace-pre hljs language-sql&quot;&gt;+ village_id INTEGER &lt;span style=&quot;white-space: pre;&quot;&gt;&amp;nbsp;&amp;nbsp;&amp;nbsp;&amp;nbsp;&lt;/span&gt;FK villages(ID),&lt;br&gt;&lt;/code&gt;+ name&lt;br&gt;+ image&lt;br&gt;+ level&lt;/div&gt;&lt;div&gt;+ offence&lt;/div&gt;&lt;div&gt;+ defence&lt;br&gt;&lt;/div&gt;" style="text;strokeColor=none;fillColor=none;align=left;verticalAlign=top;spacingLeft=4;spacingRight=4;overflow=hidden;rotatable=0;points=[[0,0.5],[1,0.5]];portConstraint=eastwest;whiteSpace=wrap;html=1;" parent="vT_4UTrxaRrFR3VL8aXK-5" vertex="1">
          <mxGeometry y="26" width="160" height="134" as="geometry" />
        </mxCell>
        <mxCell id="vT_4UTrxaRrFR3VL8aXK-48" value="" style="line;strokeWidth=1;fillColor=none;align=left;verticalAlign=middle;spacingTop=-1;spacingLeft=3;spacingRight=3;rotatable=0;labelPosition=right;points=[];portConstraint=eastwest;strokeColor=inherit;" parent="vT_4UTrxaRrFR3VL8aXK-5" vertex="1">
          <mxGeometry y="160" width="160" height="8" as="geometry" />
        </mxCell>
        <mxCell id="vT_4UTrxaRrFR3VL8aXK-7" value="" style="line;strokeWidth=1;fillColor=none;align=left;verticalAlign=middle;spacingTop=-1;spacingLeft=3;spacingRight=3;rotatable=0;labelPosition=right;points=[];portConstraint=eastwest;strokeColor=inherit;" parent="vT_4UTrxaRrFR3VL8aXK-5" vertex="1">
          <mxGeometry y="168" width="160" height="8" as="geometry" />
        </mxCell>
        <mxCell id="vT_4UTrxaRrFR3VL8aXK-8" value="+ method(type): type" style="text;strokeColor=none;fillColor=none;align=left;verticalAlign=top;spacingLeft=4;spacingRight=4;overflow=hidden;rotatable=0;points=[[0,0.5],[1,0.5]];portConstraint=eastwest;whiteSpace=wrap;html=1;" parent="vT_4UTrxaRrFR3VL8aXK-5" vertex="1">
          <mxGeometry y="176" width="160" height="26" as="geometry" />
        </mxCell>
        <mxCell id="vT_4UTrxaRrFR3VL8aXK-9" value="Building" style="swimlane;fontStyle=1;align=center;verticalAlign=top;childLayout=stackLayout;horizontal=1;startSize=26;horizontalStack=0;resizeParent=1;resizeParentMax=0;resizeLast=0;collapsible=1;marginBottom=0;whiteSpace=wrap;html=1;" parent="1" vertex="1">
          <mxGeometry x="580" y="402" width="160" height="174" as="geometry" />
        </mxCell>
        <mxCell id="vT_4UTrxaRrFR3VL8aXK-10" value="&lt;div&gt;+ id&lt;br&gt;&lt;code class=&quot;!whitespace-pre hljs language-sql&quot;&gt;+ village_id INTEGER &lt;span style=&quot;white-space: pre;&quot;&gt;&#x9;&lt;/span&gt;FK villages(ID),&lt;br&gt;&lt;/code&gt;+ name&lt;br&gt;+ image&lt;br&gt;+ level&lt;/div&gt;" style="text;strokeColor=none;fillColor=none;align=left;verticalAlign=top;spacingLeft=4;spacingRight=4;overflow=hidden;rotatable=0;points=[[0,0.5],[1,0.5]];portConstraint=eastwest;whiteSpace=wrap;html=1;" parent="vT_4UTrxaRrFR3VL8aXK-9" vertex="1">
          <mxGeometry y="26" width="160" height="114" as="geometry" />
        </mxCell>
        <mxCell id="vT_4UTrxaRrFR3VL8aXK-11" value="" style="line;strokeWidth=1;fillColor=none;align=left;verticalAlign=middle;spacingTop=-1;spacingLeft=3;spacingRight=3;rotatable=0;labelPosition=right;points=[];portConstraint=eastwest;strokeColor=inherit;" parent="vT_4UTrxaRrFR3VL8aXK-9" vertex="1">
          <mxGeometry y="140" width="160" height="8" as="geometry" />
        </mxCell>
        <mxCell id="vT_4UTrxaRrFR3VL8aXK-12" value="+ method(type): type" style="text;strokeColor=none;fillColor=none;align=left;verticalAlign=top;spacingLeft=4;spacingRight=4;overflow=hidden;rotatable=0;points=[[0,0.5],[1,0.5]];portConstraint=eastwest;whiteSpace=wrap;html=1;" parent="vT_4UTrxaRrFR3VL8aXK-9" vertex="1">
          <mxGeometry y="148" width="160" height="26" as="geometry" />
        </mxCell>
        <mxCell id="vT_4UTrxaRrFR3VL8aXK-17" value="Misc_object" style="swimlane;fontStyle=1;align=center;verticalAlign=top;childLayout=stackLayout;horizontal=1;startSize=26;horizontalStack=0;resizeParent=1;resizeParentMax=0;resizeLast=0;collapsible=1;marginBottom=0;whiteSpace=wrap;html=1;" parent="1" vertex="1">
          <mxGeometry x="580" y="600" width="160" height="144" as="geometry" />
        </mxCell>
        <mxCell id="vT_4UTrxaRrFR3VL8aXK-18" value="id&lt;br&gt;&lt;code class=&quot;!whitespace-pre hljs language-sql&quot;&gt;+ village_id INTEGER &lt;span style=&quot;white-space: pre;&quot;&gt;&amp;nbsp;&amp;nbsp;&amp;nbsp;&amp;nbsp;&lt;/span&gt;FK villages(ID),&lt;br&gt;&lt;/code&gt;+ name&lt;br&gt;+ image" style="text;strokeColor=none;fillColor=none;align=left;verticalAlign=top;spacingLeft=4;spacingRight=4;overflow=hidden;rotatable=0;points=[[0,0.5],[1,0.5]];portConstraint=eastwest;whiteSpace=wrap;html=1;" parent="vT_4UTrxaRrFR3VL8aXK-17" vertex="1">
          <mxGeometry y="26" width="160" height="84" as="geometry" />
        </mxCell>
        <mxCell id="vT_4UTrxaRrFR3VL8aXK-19" value="" style="line;strokeWidth=1;fillColor=none;align=left;verticalAlign=middle;spacingTop=-1;spacingLeft=3;spacingRight=3;rotatable=0;labelPosition=right;points=[];portConstraint=eastwest;strokeColor=inherit;" parent="vT_4UTrxaRrFR3VL8aXK-17" vertex="1">
          <mxGeometry y="110" width="160" height="8" as="geometry" />
        </mxCell>
        <mxCell id="vT_4UTrxaRrFR3VL8aXK-20" value="+ method(type): type" style="text;strokeColor=none;fillColor=none;align=left;verticalAlign=top;spacingLeft=4;spacingRight=4;overflow=hidden;rotatable=0;points=[[0,0.5],[1,0.5]];portConstraint=eastwest;whiteSpace=wrap;html=1;" parent="vT_4UTrxaRrFR3VL8aXK-17" vertex="1">
          <mxGeometry y="118" width="160" height="26" as="geometry" />
        </mxCell>
        <mxCell id="vT_4UTrxaRrFR3VL8aXK-27" value="Relation" style="endArrow=open;html=1;endSize=12;startArrow=diamondThin;startSize=14;startFill=0;edgeStyle=orthogonalEdgeStyle;rounded=0;exitX=-0.006;exitY=0.041;exitDx=0;exitDy=0;entryX=1;entryY=0.269;entryDx=0;entryDy=0;entryPerimeter=0;exitPerimeter=0;" parent="1" source="vT_4UTrxaRrFR3VL8aXK-5" target="vT_4UTrxaRrFR3VL8aXK-2" edge="1">
          <mxGeometry relative="1" as="geometry">
            <mxPoint x="320" y="260" as="sourcePoint" />
            <mxPoint x="480" y="260" as="targetPoint" />
          </mxGeometry>
        </mxCell>
        <mxCell id="vT_4UTrxaRrFR3VL8aXK-28" value="0..n" style="edgeLabel;resizable=0;html=1;align=left;verticalAlign=top;" parent="vT_4UTrxaRrFR3VL8aXK-27" connectable="0" vertex="1">
          <mxGeometry x="-1" relative="1" as="geometry" />
        </mxCell>
        <mxCell id="vT_4UTrxaRrFR3VL8aXK-29" value="1" style="edgeLabel;resizable=0;html=1;align=right;verticalAlign=top;" parent="vT_4UTrxaRrFR3VL8aXK-27" connectable="0" vertex="1">
          <mxGeometry x="1" relative="1" as="geometry" />
        </mxCell>
        <mxCell id="vT_4UTrxaRrFR3VL8aXK-30" value="Relation" style="endArrow=open;html=1;endSize=12;startArrow=diamondThin;startSize=14;startFill=0;edgeStyle=orthogonalEdgeStyle;rounded=0;exitX=-0.006;exitY=0.846;exitDx=0;exitDy=0;exitPerimeter=0;entryX=0.994;entryY=0.154;entryDx=0;entryDy=0;entryPerimeter=0;" parent="1" source="vT_4UTrxaRrFR3VL8aXK-10" target="vT_4UTrxaRrFR3VL8aXK-4" edge="1">
          <mxGeometry relative="1" as="geometry">
            <mxPoint x="589" y="334" as="sourcePoint" />
            <mxPoint x="510" y="393" as="targetPoint" />
          </mxGeometry>
        </mxCell>
        <mxCell id="vT_4UTrxaRrFR3VL8aXK-31" value="0..n" style="edgeLabel;resizable=0;html=1;align=left;verticalAlign=top;" parent="vT_4UTrxaRrFR3VL8aXK-30" connectable="0" vertex="1">
          <mxGeometry x="-1" relative="1" as="geometry" />
        </mxCell>
        <mxCell id="vT_4UTrxaRrFR3VL8aXK-32" value="1" style="edgeLabel;resizable=0;html=1;align=right;verticalAlign=top;" parent="vT_4UTrxaRrFR3VL8aXK-30" connectable="0" vertex="1">
          <mxGeometry x="1" relative="1" as="geometry" />
        </mxCell>
        <mxCell id="vT_4UTrxaRrFR3VL8aXK-36" value="Relation" style="endArrow=open;html=1;endSize=12;startArrow=diamondThin;startSize=14;startFill=0;edgeStyle=orthogonalEdgeStyle;rounded=0;entryX=0.831;entryY=1;entryDx=0;entryDy=0;entryPerimeter=0;exitX=-0.012;exitY=0.076;exitDx=0;exitDy=0;exitPerimeter=0;" parent="1" source="vT_4UTrxaRrFR3VL8aXK-17" target="vT_4UTrxaRrFR3VL8aXK-4" edge="1">
          <mxGeometry relative="1" as="geometry">
            <mxPoint x="570" y="610" as="sourcePoint" />
            <mxPoint x="580" y="570" as="targetPoint" />
            <Array as="points">
              <mxPoint x="473" y="611" />
              <mxPoint x="473" y="490" />
            </Array>
          </mxGeometry>
        </mxCell>
        <mxCell id="vT_4UTrxaRrFR3VL8aXK-37" value="0..n" style="edgeLabel;resizable=0;html=1;align=left;verticalAlign=top;" parent="vT_4UTrxaRrFR3VL8aXK-36" connectable="0" vertex="1">
          <mxGeometry x="-1" relative="1" as="geometry" />
        </mxCell>
        <mxCell id="vT_4UTrxaRrFR3VL8aXK-38" value="1" style="edgeLabel;resizable=0;html=1;align=right;verticalAlign=top;" parent="vT_4UTrxaRrFR3VL8aXK-36" connectable="0" vertex="1">
          <mxGeometry x="1" relative="1" as="geometry" />
        </mxCell>
        <mxCell id="vT_4UTrxaRrFR3VL8aXK-43" value="Tile" style="swimlane;fontStyle=1;align=center;verticalAlign=top;childLayout=stackLayout;horizontal=1;startSize=26;horizontalStack=0;resizeParent=1;resizeParentMax=0;resizeLast=0;collapsible=1;marginBottom=0;whiteSpace=wrap;html=1;" parent="1" vertex="1">
          <mxGeometry x="180" y="670" width="310" height="174" as="geometry" />
        </mxCell>
        <mxCell id="vT_4UTrxaRrFR3VL8aXK-44" value="&lt;pre&gt;&lt;code class=&quot;!whitespace-pre hljs language-sql&quot;&gt; + id INTEGER &lt;span class=&quot;hljs-keyword&quot;&gt;PRIMARY&lt;/span&gt; KEY AUTOINCR,&lt;br&gt; + village_id &lt;span class=&quot;hljs-type&quot;&gt;INTEGER&lt;/span&gt; - FK villages(ID),&lt;br&gt;&lt;/code&gt;&lt;code class=&quot;!whitespace-pre hljs language-sql&quot;&gt; + row_num: INTEGER&lt;br&gt; + column_num: INTEGER&lt;/code&gt;&lt;br&gt;&lt;code class=&quot;!whitespace-pre hljs language-sql&quot;&gt; + content_type TEXT,&lt;br&gt; + content_id &lt;span class=&quot;hljs-type&quot;&gt;INTEGER&lt;/span&gt;, &lt;br&gt;&lt;/code&gt;&lt;/pre&gt;" style="text;strokeColor=none;fillColor=none;align=left;verticalAlign=top;spacingLeft=4;spacingRight=4;overflow=hidden;rotatable=0;points=[[0,0.5],[1,0.5]];portConstraint=eastwest;whiteSpace=wrap;html=1;" parent="vT_4UTrxaRrFR3VL8aXK-43" vertex="1">
          <mxGeometry y="26" width="310" height="114" as="geometry" />
        </mxCell>
        <mxCell id="vT_4UTrxaRrFR3VL8aXK-45" value="" style="line;strokeWidth=1;fillColor=none;align=left;verticalAlign=middle;spacingTop=-1;spacingLeft=3;spacingRight=3;rotatable=0;labelPosition=right;points=[];portConstraint=eastwest;strokeColor=inherit;" parent="vT_4UTrxaRrFR3VL8aXK-43" vertex="1">
          <mxGeometry y="140" width="310" height="8" as="geometry" />
        </mxCell>
        <mxCell id="vT_4UTrxaRrFR3VL8aXK-46" value="+ method(type): type" style="text;strokeColor=none;fillColor=none;align=left;verticalAlign=top;spacingLeft=4;spacingRight=4;overflow=hidden;rotatable=0;points=[[0,0.5],[1,0.5]];portConstraint=eastwest;whiteSpace=wrap;html=1;" parent="vT_4UTrxaRrFR3VL8aXK-43" vertex="1">
          <mxGeometry y="148" width="310" height="26" as="geometry" />
        </mxCell>
        <mxCell id="x9nhXS3DZCD5mXqcOqJV-1" value="Relation" style="endArrow=open;html=1;endSize=12;startArrow=diamondThin;startSize=14;startFill=0;edgeStyle=orthogonalEdgeStyle;rounded=0;exitX=0.5;exitY=0;exitDx=0;exitDy=0;entryX=0.308;entryY=0.969;entryDx=0;entryDy=0;entryPerimeter=0;" edge="1" parent="1" source="vT_4UTrxaRrFR3VL8aXK-43" target="vT_4UTrxaRrFR3VL8aXK-4">
          <mxGeometry relative="1" as="geometry">
            <mxPoint x="350" y="660" as="sourcePoint" />
            <mxPoint x="510" y="660" as="targetPoint" />
          </mxGeometry>
        </mxCell>
        <mxCell id="x9nhXS3DZCD5mXqcOqJV-2" value="0..n" style="edgeLabel;resizable=0;html=1;align=left;verticalAlign=top;" connectable="0" vertex="1" parent="x9nhXS3DZCD5mXqcOqJV-1">
          <mxGeometry x="-1" relative="1" as="geometry" />
        </mxCell>
        <mxCell id="x9nhXS3DZCD5mXqcOqJV-3" value="1" style="edgeLabel;resizable=0;html=1;align=right;verticalAlign=top;" connectable="0" vertex="1" parent="x9nhXS3DZCD5mXqcOqJV-1">
          <mxGeometry x="1" relative="1" as="geometry" />
        </mxCell>
      </root>
    </mxGraphModel>
  </diagram>
</mxfile>
